inDegrees=yes
nColumns=22
nRows=10
DataType=double
version=3
OpenSimVersion=4.5
endheader
time	pelvis_tilt	pelvis_list	pelvis_rotation	pelvis_tx	pelvis_ty	pelvis_tz	hip_flexion_r	hip_adduction_r	hip_rotation_r	knee_angle_r	ankle_angle_r	mtp_angle_r	hip_flexion_l	hip_adduction_l	hip_rotation_l	knee_angle_l	ankle_angle_l	mtp_angle_l	lumbar_extension	lumbar_bending	lumbar_rotation
0.7506249081129444	-1.104717762057533	5.917142575831749	-1.919130739172726	0.953733449712485	0.8309646176166025	-0.005580911379862287	-2.159620109126402	-8.10690403258949	-7.787852624837014	-57.62616621600047	-14.07594279676587	0	20.79531888732741	11.00380534508546	-5.362179096782363	-23.87474151467177	8.487993190598282	0	-0.1402244515407271	-4.834278346661659	2.377918701246434
0.7619980127813223	-1.135076678754974	5.826665278839975	-1.769736509387175	0.9667067083939361	0.8335122692022598	-0.006309079300229773	0.6601668990195836	-8.084217352122669	-7.110045090523482	-60.97945436396577	-13.07491112955871	0	19.33758389916806	11.05273641118323	-5.309553142808021	-22.95601847988424	8.885597284987648	0	-0.2113176437005164	-4.713073535059229	1.893063713373845
0.7733711174497003	-1.160135902648844	5.662391260247555	-1.613006430220356	0.9793917055999474	0.8361727929690367	-0.006962314216449956	3.486029268483673	-7.903438185487954	-6.500984414307864	-63.93417669776841	-11.85648507954107	0	17.82081980588291	11.02490659130143	-5.183136077084504	-21.90405734566036	9.212452080226177	0	-0.3049872254149375	-4.505946239774672	1.389521892117653
0.7847442221180781	-1.177278116558405	5.42630827409374	-1.442040005043001	0.9918659372164346	0.8389011649759925	-0.007528837285529159	6.286076726488928	-7.583819573069018	-5.989167045258646	-66.45288534106646	-10.62241679480063	0	16.24291053625038	10.9190160252897	-4.987152510591367	-20.72988526700455	9.483467487982102	0	-0.4129443585660068	-4.223630096497222	0.8699065039882938
0.7961173267864561	-1.18651284212915	5.121334234685089	-1.253755547000824	1.004174654855289	0.8416442419786244	-0.008005937871090869	9.035401914411693	-7.153201641138803	-5.601544748621903	-68.48515560554576	-9.439454911883349	0	14.61294540665604	10.73247872731151	-4.740393014374671	-19.45260375688562	9.708088574152084	0	-0.5309428196488297	-3.874907583011126	0.3407685066565506
0.8074904314548341	-1.187757681627785	4.753471947022826	-1.046652389746994	1.016347051826139	0.8443384348579726	-0.008392893421766644	11.72038394594035	-6.641705622807108	-5.352179119050895	-70.025551686181	-8.283088179698261	0	12.94207186620315	10.46577857322657	-4.469535101575759	-18.09297535223768	9.902795423186671	0	-0.6571793910460353	-3.470640628782991	-0.1931718163374004
0.8188635361232121	-1.180278932902553	4.335613433147508	-0.8198346503013392	1.028402839917544	0.8469129579893767	-0.008691379355077444	14.33633103860394	-6.083669068791473	-5.24312554963363	-71.11351724817321	-7.09635981338156	0	11.24197259272965	10.12839490675668	-4.198504105609023	-16.67231337042428	10.08117973388906	0	-0.7916292289169762	-3.028434144683263	-0.7291550284780182
0.8302366407915899	-1.16250542176376	3.883575616812173	-0.5724404942374165	1.040357293533868	0.8493005375964827	-0.008909324283183714	16.87876894347414	-5.513680183782967	-5.268610780849201	-71.79813499409292	-5.830104116507386	0	9.524676044371276	9.735225924577852	-3.943907388750238	-15.21239717355404	10.24358444862571	0	-0.9358963502637071	-2.567365718838046	-1.265936808587
0.8416097454599679	-1.131980729814266	3.410643092828055	-0.3035288186556442	1.052227296299917	0.8514476570038221	-0.009062055092047208	19.33349762770209	-4.958511859325177	-5.415300479802366	-72.09636134048806	-4.494547301239876	0	7.802858775329682	9.300831464636653	-3.709501497857647	-13.74152239688586	10.39694477310684	0	-1.092512852464563	-2.10140998728785	-1.802461316970637
0.8529828501283458	-1.08558884313859	2.928553154109341	-0.01198156755882196	1.064044243511097	0.8533215450346124	-0.009169959348960418	21.66633049932397	-4.436488350572307	-5.662433178549537	-71.96527504526475	-3.125898994822881	0	6.078776547964418	8.83954233263483	-3.488727645872302	-12.27371087168873	10.54701986491546	0	-1.26268009244192	-1.641088464752519	-2.33816729101941
